<?xml version="1.0" standalone="no"?>
<!DOCTYPE svg PUBLIC "-//W3C//DTD SVG 20010904//EN"
 "http://www.w3.org/TR/2001/REC-SVG-20010904/DTD/svg10.dtd">
<svg version="1.0" xmlns="http://www.w3.org/2000/svg"
 width="600.000000pt" height="600.000000pt" viewBox="0 0 600.000000 600.000000"
 preserveAspectRatio="xMidYMid meet">
<metadata>
Created by potrace 1.14, written by Peter Selinger 2001-2017
</metadata>
<g transform="translate(0.000000,600.000000) scale(0.100000,-0.100000)"
fill="#000000" stroke="none">
<path d="M4220 5316 c-20 -6 -74 -36 -120 -67 -47 -31 -163 -104 -258 -163
-187 -117 -227 -154 -227 -215 0 -49 28 -84 100 -128 33 -20 153 -99 268 -175
269 -180 297 -191 345 -140 l27 29 -1 379 c-1 396 -5 433 -45 470 -25 23 -45
25 -89 10z"/>
<path d="M3423 4506 c-26 -23 -28 -29 -30 -113 -1 -77 -5 -646 -18 -2696 l-3
-537 73 -53 c40 -28 82 -58 92 -64 10 -7 114 -80 231 -163 117 -82 216 -150
218 -150 3 0 14 -9 26 -19 33 -32 179 -100 226 -106 48 -7 83 9 104 47 11 22
12 672 5 2853 l-2 499 -120 77 c-66 42 -183 116 -260 165 -77 48 -197 125
-266 171 -183 121 -224 134 -276 89z"/>
<path d="M1920 3800 c-169 -112 -450 -295 -498 -325 -19 -12 -311 -202 -332
-215 -8 -6 -85 -55 -170 -110 -219 -141 -253 -178 -219 -239 18 -32 34 -43
364 -260 263 -172 595 -391 625 -411 25 -17 636 -419 755 -497 61 -40 117 -77
125 -83 16 -12 240 -159 505 -332 94 -62 176 -116 183 -121 9 -8 12 91 12 486
l0 495 -555 369 c-304 202 -554 371 -555 374 0 4 26 24 57 45 32 22 62 43 68
47 5 5 96 66 200 137 181 124 257 188 267 228 11 42 -16 86 -77 126 -47 31
-189 138 -270 204 -5 4 -41 32 -80 62 -38 30 -98 76 -131 102 -34 26 -66 48
-70 47 -5 0 -97 -58 -204 -129z"/>
</g>
</svg>
